<?xml version="1.0" encoding="UTF-8"?><svg id="b" xmlns="http://www.w3.org/2000/svg" viewBox="0 0 59.83 64.78"><defs><style>.d{fill:#fff;}</style></defs><g id="c"><path class="d" d="M44.86,32.4c1.19-1.5,3.08-3.8,4.2-5.11,1.1-1.31,1.96-2.48,1.91-2.63-.17-.5-1.24-.41-1.86.14-1.79,1.6-8.79,10.5-10.17,12.96-1.6,2.86,1.65-.07,5.92-5.37Z"/><path class="d" d="M32.4,35.41c.1-.07.57-1.03,1.05-2.1.48-1.1,1.46-3.39,2.22-5.08.74-1.72,1.81-4.23,2.41-5.59.6-1.38,1.5-3.37,2.01-4.39.91-1.79.93-1.91.53-2.22-1.05-.79-1.58-.29-3.03,2.89-1.53,3.27-3.18,7.54-3.96,10.27-.41,1.46-.91,3.08-1.1,3.65-.36,1.12-.45,2.77-.12,2.58Z"/><path class="d" d="M49.33,41.42c-.57.91-.43,1.19.38.81.6-.26,6.8-5.51,7.64-6.47.72-.79.36-.79-1.03,0-3.13,1.79-6.06,4.18-6.99,5.66Z"/><path class="d" d="M17.74,30.27l.07-.62c.05-.36-.17-1.15-.5-1.77-1.86-3.58-5.18-9.36-6.42-11.2-.38-.55-.76-1-.86-1-.38,0-1.24.76-1.24,1.1,0,.79,6.8,11.39,8.16,12.72l.79.76Z"/><path class="d" d="M27.87,54.22c.25-1.92,1.12-6.49,1.25-6.59.11-.08,2.77.22,5.91.66l5.75.78-.58,3.68-.58,3.68-5.9-.93c-5.07-.8-5.89-.97-5.86-1.28Z"/><path class="d" d="M1.7,41.04c-.23-.37-.17-1.21.21-3.64.3-1.93.59-3.12.73-3.1.12.02.46.29.75.6.78.87,6.24,4.9,7.25,5.37l.9.43-.55,3.95c-.31,2.15-.62,3.91-.69,3.9-.14-.02-2.04-1.48-3.49-2.68-1.86-1.53-4.8-4.33-5.11-4.84Z"/><path class="d" d="M1.01,43.23l.69.81c.39.42,1.26,1.21,1.91,1.7.65.49,2.05,1.58,3.12,2.42,2.32,1.84,7.52,4.44,10.97,5.52,7.95,2.48,8.09,2.5,19.82,4.59,4.77.87,7.48,1.44,8.41,1.83,1.59.64,4.36,2.23,4.32,2.47-.01.09-.21.28-.4.42-.21.11-.57.56-.78.96-.45.9-.96,1.03-2.02.53-3.08-1.48-5.52-2.1-15.35-3.84-8.18-1.48-9.37-1.74-12.37-2.77-7.93-2.75-13.22-5.51-16.8-8.76C1.12,47.79-.08,46.18,0,45.66c.05-.16.29-.75.53-1.34l.48-1.08Z"/><path class="d" d="M21.76,52.82c-2.88-.72-6.48-1.96-8.14-2.8l-.74-.38.63-3.55c.38-2.12.73-3.54.87-3.56.12,0,1.71.63,3.52,1.42,1.81.77,4.32,1.72,5.59,2.09,1.27.37,2.45.72,2.61.8.25.11.17.78-.36,3.35-.38,1.78-.73,3.27-.79,3.31-.08.06-1.51-.26-3.2-.67Z"/><path class="d" d="M43.47,57.4c-.71-.11-1.33-.33-1.38-.46-.05-.15.21-1.78.6-3.65l.7-3.39.73.14c2.84.54,11.51,4.9,12.25,6.16.19.32.12.48-.3.85-.3.24-1.02.97-1.63,1.63-.58.63-1.45,1.37-1.9,1.61l-.84.42-1.81-.91c-2.42-1.23-4.88-2.15-6.42-2.39Z"/><path class="d" d="M4.5,29.38c.67.83,4.57,4.3,6.39,5.62,2.34,1.72,8.23,4.85,10.88,5.8,3.11,1.12,8.07,2.16,15.1,3.22,5.91.86,6.93,1.09,9.55,1.96,4.75,1.62,11.16,5.11,12.77,6.99l.63.75-.76.82c-.41.47-.83.84-.95.82s-.6-.31-1.08-.68c-.85-.59-.87-.64-.42-1.01.61-.48.57-1.14-.12-1.69-.77-.61-1.36-.43-1.5.47-.08.52-.23.69-.54.64-.78-.12-1.35-.91-1.23-1.72.16-1.01-.03-1.33-.9-1.66-.61-.24-.74-.19-.94.31-.15.32-.21.72-.13.85.14.36-.48.26-1.55-.27-.65-.3-.8-.46-.57-.67.39-.35.25-1.46-.26-1.85-.67-.52-1.16-.28-1.21.61-.04.57.09.84.51,1.05.32.15-.11.1-.95-.1-.83-.23-1.57-.44-1.68-.53-.09-.06-.09-.52,0-1.04.14-.87-.07-1.22-.9-1.35-.38-.06-.55.71-.32,1.42.17.46.09.47-1.32.25-1.75-.27-1.96-.45-1.19-.91.77-.43.61-1.11-.33-1.26-.64-.1-.72-.04-.83.69s-.22.79-.88.83c-1.48.06-1.73-.05-1.46-.71.42-1,.21-1.51-.71-1.66-.66-.1-.82-.03-.91.39-.31,1.52-.28,1.48-1.45,1.37l-1.14-.11.21-.89.19-.89-.94-.15c-.92-.14-.95-.12-1.07.63-.14.87-.75,1.07-1.82.63-.5-.22-.55-.35-.32-.9.24-.59.18-.67-.51-.9-.94-.29-1.26-.1-1.01.61.24.76-.03.99-1.05.83-1.18-.19-1.41-.44-1.21-1.4.17-.79.15-.82-.71-1.03-.89-.21-.91-.22-.85.49,0,.41-.05.77-.18.82-.21.09-2.7-.64-3.28-.97-.25-.11-.26-.21-.01-.39.82-.6.21-1.61-1.14-1.82-.35-.06-.47.09-.58.75-.14.9-.52.98-1.6.35-.51-.27-.56-.45-.41-1.37.16-.99.12-1.07-.59-1.33-.39-.16-.91-.36-1.16-.47-.36-.15-.42-.07-.46.8-.08,1.12-.18,1.13-1.49.27-.9-.6-.94-.65-.67-1.41.25-.64.2-.84-.14-1.11-.8-.61-1.58-.59-1.84.05-.3.68-.87.64-1.99-.12-.61-.41-.7-.59-.52-.98.74-1.46.72-1.67-.21-2.35-.81-.56-.92-.6-1.09-.29-.13.2-.21.72-.21,1.18v.85s-.79-.59-.79-.59c-.43-.31-1.44-1.29-2.2-2.16-.78-.87-1.63-1.78-1.86-2.01l-.46-.44.89-1.19c.95-1.28,1.03-1.34,1.47-.76Z"/><path class="d" d="M21.97,3.51c-2.08,0-2.2.24-.67,1.41.74.55,1.34,1.1,1.34,1.22s-.17.84-.36,1.6c-.5,1.89-.48,2.05.14,1.72.29-.14.98-.69,1.55-1.22l1.03-.95,1.38,1.22c.74.67,1.46,1.22,1.55,1.22.33,0,.21-.64-.38-2.24l-.6-1.55,1.43-.91c.76-.5,1.41-.98,1.41-1.05,0-.21-1.31-.45-2.41-.45-1.03,0-1.17-.19-1.86-2.22-.24-.67-.53-1.24-.67-1.29s-.38.43-.55,1.05c-.62,2.27-.79,2.46-2.34,2.46Z"/><path class="d" d="M26.03,28.1c.1-.45.26-3.77.36-7.35l.14-6.49h-2.46v1.84c0,3.41.5,11.77.72,12.39.33.86,1,.64,1.24-.38Z"/></g></svg>